<svg xmlns="http://www.w3.org/2000/svg" version="1.1" xmlns:xlink="http://www.w3.org/1999/xlink" xmlns:svgjs="http://svgjs.dev/svgjs" width="2000" height="2000" viewBox="0 0 2000 2000"><g transform="matrix(1,0,0,1,-0.28443113772425477,-0.28443113772459583)"><svg viewBox="0 0 334 334" data-background-color="#ffffff" preserveAspectRatio="xMidYMid meet" height="2000" width="2000" xmlns="http://www.w3.org/2000/svg" xmlns:xlink="http://www.w3.org/1999/xlink"><g id="tight-bounds" transform="matrix(1,0,0,1,0.04749999999998522,0.04750000000001364)"><svg viewBox="0 0 333.90454557049503 333.90454557049503" height="333.90454557049503" width="333.90454557049503"><g><svg></svg></g><g><svg viewBox="0 0 333.90454557049503 333.90454557049503" height="333.90454557049503" width="333.90454557049503"><g><path d="M0 166.952c0-92.205 74.747-166.952 166.952-166.952 92.205 0 166.952 74.747 166.953 166.952 0 92.205-74.747 166.952-166.953 166.953-92.205 0-166.952-74.747-166.952-166.953zM166.952 316.63c82.665 0 149.677-67.013 149.678-149.678 0-82.665-67.013-149.677-149.678-149.677-82.665 0-149.677 67.013-149.677 149.677 0 82.665 67.013 149.677 149.677 149.678z" data-fill-palette-color="tertiary" fill="#ff4a3f" stroke="transparent"></path><ellipse rx="160.27418187383762" ry="160.27418187383762" cx="166.95227278524752" cy="166.95227278524752" fill="#ff4a3f" stroke="transparent" stroke-width="0" fill-opacity="1" data-fill-palette-color="tertiary"></ellipse></g><g transform="matrix(1,0,0,1,98.57769326282163,71.17305217166896)"><svg viewBox="0 0 136.74915904485178 191.55844122715712" height="191.55844122715712" width="136.74915904485178"><g><svg viewBox="0 0 136.74915904485178 191.55844122715712" height="191.55844122715712" width="136.74915904485178"><g><svg viewBox="0 0 136.74915904485178 191.55844122715712" height="191.55844122715712" width="136.74915904485178"><g id="textblocktransform"><svg viewBox="0 0 136.74915904485178 191.55844122715712" height="191.55844122715712" width="136.74915904485178" id="textblock"><g><svg viewBox="0 0 136.74915904485178 191.55844122715712" height="191.55844122715712" width="136.74915904485178"><g transform="matrix(1,0,0,1,0,0)"><svg width="136.74915904485178" viewBox="2.4 -34.5 24.950000000000003 34.95" height="191.55844122715712" data-palette-color="#ffffff"><path d="M21.6 0.45L21.6 0.45Q20.3 0.45 18.63-1.53 16.95-3.5 15.25-6.68 13.55-9.85 12-13.5L12-13.5Q11.8-13.95 11.58-14.43 11.35-14.9 11.35-15.4L11.35-15.4Q11.35-15.95 11.7-16.18 12.05-16.4 12.45-16.45L12.45-16.45Q15.85-17.1 18.13-19.15 20.4-21.2 20.4-24.4L20.4-24.4Q20.4-26.2 19.63-27.63 18.85-29.05 16.9-29.9 14.95-30.75 11.5-30.75L11.5-30.75 11.3-30.75 8 0.4 3.95 0.4Q3.1 0.4 2.75-0.4 2.4-1.2 2.4-2.55L2.4-2.55Q2.4-3.55 2.55-4.8L2.55-4.8 5.75-34Q7.95-34.25 10.13-34.38 12.3-34.5 14.45-34.5L14.45-34.5Q18.1-34.5 20.95-33.5 23.8-32.5 25.43-30.4 27.05-28.3 27.05-24.95L27.05-24.95Q27.05-22.6 26.13-20.75 25.2-18.9 23.63-17.57 22.05-16.25 20.15-15.4 18.25-14.55 16.3-14.15L16.3-14.15 16.7-16.65Q18.4-13.1 20.03-10.6 21.65-8.1 22.95-6.63 24.25-5.15 24.95-4.55L24.95-4.55Q26.2-3.6 26.78-3.23 27.35-2.85 27.35-2.4L27.35-2.4Q27.35-1.95 26.73-1.48 26.1-1 25.15-0.55 24.2-0.1 23.23 0.18 22.25 0.45 21.6 0.45Z" opacity="1" transform="matrix(1,0,0,1,0,0)" fill="#ffffff" class="wordmark-text-0" data-fill-palette-color="quaternary" id="text-0"></path></svg></g></svg></g></svg></g></svg></g><g></g></svg></g></svg></g></svg></g><defs></defs></svg><rect width="333.90454557049503" height="333.90454557049503" fill="none" stroke="none" visibility="hidden"></rect></g></svg></g></svg>